<svg width="17" height="27" viewBox="0 0 17 27" fill="none" xmlns="http://www.w3.org/2000/svg">
<path d="M6.8 0.524388V6.75011H5.66667V0.562638C5.66667 0.413455 5.60697 0.270381 5.50069 0.164893C5.39442 0.0594038 5.25029 0.000140953 5.1 0.000140953C4.94971 0.000140953 4.80558 0.0594038 4.69931 0.164893C4.59304 0.270381 4.53333 0.413455 4.53333 0.562638V6.75011H3.4V0.542388C3.4 -0.181546 2.26667 -0.156796 2.26667 0.523826V6.75011H1.13333V0.568263C1.13333 -0.198421 0 -0.170296 0 0.537888V8.67835C0 9.85228 1.13333 10.6263 2.26667 10.6263V25.3125C2.26667 27.5625 5.66667 27.5625 5.66667 25.3125V10.6268C6.8 10.6268 7.93333 9.69197 7.93333 8.81166V0.542388C7.93333 -0.174796 6.8 -0.147233 6.8 0.524388ZM11.9 2.25013V16.3126H13.0333V25.3125C13.0333 27.5625 17 27.5625 17 25.3125V2.25013C17 -0.562356 11.9 -0.562356 11.9 2.25013Z" fill="#232323"/>
</svg>
