<svg width="22" height="22" viewBox="0 0 22 22" fill="none" xmlns="http://www.w3.org/2000/svg">
<path d="M12.3506 5.94584C14.9478 5.94584 16.0557 7.05357 16.0557 9.65064H18.5257C18.5257 5.66797 16.3335 3.47596 12.3506 3.47596V5.94584ZM16.5768 12.6676C16.3395 12.4519 16.0277 12.3369 15.7071 12.3468C15.3866 12.3567 15.0825 12.4908 14.8589 12.7207L11.9035 15.7599C11.1921 15.624 9.76198 15.1782 8.28983 13.7099C6.81768 12.2366 6.37184 10.8028 6.23969 10.0965L9.27662 7.14002C9.50684 6.91665 9.64112 6.61248 9.65103 6.29187C9.66094 5.97127 9.54571 5.65938 9.32972 5.42222L4.76631 0.404679C4.55023 0.166777 4.24992 0.0224713 3.92915 0.00241033C3.60838 -0.0176507 3.29243 0.0881131 3.04839 0.297239L0.368386 2.59545C0.154864 2.80974 0.0274194 3.09492 0.0102284 3.39693C-0.00829694 3.70566 -0.361514 11.019 5.30972 16.6922C10.2572 21.6382 16.4546 22 18.1614 22C18.4109 22 18.564 21.9926 18.6048 21.9901C18.9067 21.9732 19.1918 21.8452 19.4051 21.6308L21.7022 18.9497C21.9115 18.7058 22.0175 18.39 21.9976 18.0693C21.9778 17.7485 21.8337 17.4481 21.596 17.2319L16.5768 12.6676Z" fill="#232323"/>
</svg>
